<?xml version="1.0" encoding="UTF-8" standalone="no"?>
<!DOCTYPE svg PUBLIC "-//W3C//DTD SVG 1.1//EN" "http://www.w3.org/Graphics/SVG/1.1/DTD/svg11.dtd">
<svg width="100%" height="100%" viewBox="0 0 1250 1250" version="1.1" xmlns="http://www.w3.org/2000/svg" xmlns:xlink="http://www.w3.org/1999/xlink" xml:space="preserve" xmlns:serif="http://www.serif.com/" style="fill-rule:evenodd;clip-rule:evenodd;stroke-linecap:round;stroke-miterlimit:1;">
    <g transform="matrix(4.16667,0,0,4.16667,0,0)">
        <g id="Artboard1" transform="matrix(0.15625,0,0,0.277778,0,0)">
            <g transform="matrix(6.4,0,0,3.6,-3650.15,-1630.85)">
                <rect x="620.336" y="478.013" width="50" height="50" style="fill:rgb(232,87,100);stroke:rgb(232,87,100);stroke-width:0.75px;"/>
            </g>
            <g transform="matrix(6.4,0,0,3.6,-3650.15,-1450.85)">
                <path d="M670.336,478.013L620.336,528.013L620.336,478.013L670.336,478.013Z" style="fill:rgb(232,87,100);stroke:rgb(232,87,100);stroke-width:0.75px;"/>
            </g>
            <g transform="matrix(6.4,0,0,3.6,-3872,-1630.85)">
                <rect x="705" y="478.013" width="50" height="50" style="fill:rgb(232,87,100);stroke:rgb(232,87,100);stroke-width:0.75px;"/>
            </g>
            <g transform="matrix(6.4,0,0,3.6,-3872,-1270.85)">
                <rect x="705" y="478.013" width="50" height="50" style="fill:rgb(232,87,100);stroke:rgb(232,87,100);stroke-width:0.75px;"/>
            </g>
            <g transform="matrix(6.4,0,0,3.6,-4192,-1270.85)">
                <path d="M755,478.013L755,528.013L705,528.013L755,478.013Z" style="fill:rgb(232,87,100);stroke:rgb(232,87,100);stroke-width:0.75px;"/>
            </g>
            <g transform="matrix(6.4,0,0,3.6,-4192,-1090.85)">
                <rect x="705" y="478.013" width="50" height="50" style="fill:rgb(232,87,100);stroke:rgb(232,87,100);stroke-width:0.75px;"/>
            </g>
            <g transform="matrix(6.4,0,0,3.6,-4192,-910.848)">
                <rect x="705" y="478.013" width="50" height="50" style="fill:rgb(232,87,100);stroke:rgb(232,87,100);stroke-width:0.75px;"/>
            </g>
            <g transform="matrix(6.4,0,0,3.6,-3552,-1630.85)">
                <rect x="705" y="478.013" width="50" height="50" style="fill:rgb(232,87,100);stroke:rgb(232,87,100);stroke-width:0.75px;"/>
            </g>
            <g transform="matrix(6.4,0,0,3.6,-3552,-1270.85)">
                <rect x="705" y="478.013" width="50" height="50" style="fill:rgb(232,87,100);stroke:rgb(232,87,100);stroke-width:0.75px;"/>
            </g>
            <g transform="matrix(6.4,0,0,3.6,-3552,-910.848)">
                <rect x="705" y="478.013" width="50" height="50" style="fill:rgb(73,68,69);stroke:rgb(73,68,69);stroke-width:0.75px;"/>
            </g>
            <g transform="matrix(6.4,0,0,3.6,-3232,-1630.85)">
                <rect x="705" y="478.013" width="50" height="50" style="fill:rgb(232,87,100);stroke:rgb(232,87,100);stroke-width:0.75px;"/>
            </g>
            <g transform="matrix(6.4,0,0,3.6,-3232,-1270.85)">
                <path d="M755,478.013L705,528.013L705,478.013L755,478.013Z" style="fill:rgb(232,87,100);stroke:rgb(232,87,100);stroke-width:0.75px;"/>
            </g>
            <g transform="matrix(6.4,0,0,3.6,-3232,-910.848)">
                <rect x="705" y="478.013" width="50" height="50" style="fill:rgb(73,68,69);stroke:rgb(73,68,69);stroke-width:0.75px;"/>
            </g>
            <g transform="matrix(6.4,0,0,3.6,-3232,-1090.85)">
                <path d="M755,478.013L755,528.013L705,528.013L755,478.013Z" style="fill:rgb(73,68,69);stroke:rgb(73,68,69);stroke-width:0.75px;"/>
            </g>
            <g transform="matrix(6.4,0,0,3.6,-3232,-1450.85)">
                <rect x="705" y="478.013" width="50" height="50" style="fill:rgb(232,87,100);stroke:rgb(232,87,100);stroke-width:0.75px;"/>
            </g>
        </g>
    </g>
</svg>
